<svg width="280" height="280" viewBox="0 0 280 280" fill="none" xmlns="http://www.w3.org/2000/svg">
<g filter="url(#filter0_d)">
<circle cx="141" cy="141" r="135" fill="url(#paint0_linear)" shape-rendering="crispEdges"/>
</g>
<path d="M125.94 88.0875C125.94 97.3418 132.295 104.89 140.148 104.89C147.968 104.89 154.357 97.3418 154.357 88.0875C154.523 82.3118 151.795 76.7986 147.036 73.3856C148.101 71.9745 148.667 70.2352 148.667 68.4631C148.7 64.8205 146.304 61.5716 142.81 60.423C139.316 59.2745 135.423 60.5215 133.26 63.475C131.097 66.4285 131.097 70.4321 133.26 73.3528C128.502 76.7986 125.773 82.279 125.94 88.0875ZM137.287 68.4631C137.287 66.9207 138.551 65.6737 140.115 65.6737C141.679 65.6737 142.944 66.9207 142.944 68.4631C142.944 70.0055 141.679 71.2525 140.115 71.2525C138.584 71.2854 137.287 70.0055 137.287 68.4631ZM140.148 76.8642C144.84 76.8642 148.667 81.8852 148.667 88.0547C148.667 94.2242 144.84 99.2452 140.148 99.2452C135.457 99.2452 131.63 94.2242 131.63 88.0547C131.63 81.8852 135.423 76.8642 140.148 76.8642Z" fill="white"/>
<path d="M199.778 104.889H154.324C154.291 104.889 154.257 104.889 154.257 104.922C153.958 104.955 153.658 105.02 153.392 105.086C153.326 105.119 153.259 105.119 153.192 105.151C153.159 105.151 153.126 105.151 153.126 105.184C153.026 105.25 152.926 105.316 152.826 105.381C152.727 105.414 152.627 105.48 152.527 105.512C150.364 106.595 148.001 107.317 145.572 107.613H145.439C145.106 107.645 144.807 107.678 144.474 107.678H135.856C135.523 107.678 135.157 107.645 134.824 107.613C132.362 107.35 129.999 106.628 127.803 105.512C127.703 105.447 127.604 105.381 127.47 105.348C127.404 105.283 127.304 105.217 127.237 105.151C127.204 105.151 127.171 105.151 127.138 105.119C127.071 105.086 127.005 105.053 126.938 105.053C126.772 104.987 126.605 104.955 126.439 104.955C126.306 104.922 126.173 104.889 126.04 104.889C126.006 104.889 125.973 104.856 125.973 104.856H80.5185C75.8267 104.856 72 108.63 72 113.257C72.0333 117.884 75.8267 121.625 80.5185 121.658H117.554C117.621 126.876 118.619 132.061 120.516 136.918C122.346 140.954 123.178 145.352 122.945 149.749C122.978 149.913 123.011 150.077 123.078 150.209V219.649C123.078 224.276 126.905 228.05 131.597 228.05C136.288 228.05 140.115 224.276 140.115 219.649V172.097C140.115 170.555 141.38 169.308 142.944 169.308H145.739C147.236 169.308 148.7 169.505 150.164 169.866L156.587 174.165C159.348 176.035 162.21 177.807 165.039 179.58L165.371 179.809C165.704 180.006 166.037 180.269 166.303 180.531C162.41 186.11 158.25 191.525 153.825 196.677L152.693 198.088C149.798 201.435 149.998 206.391 153.126 209.508C153.292 209.672 153.492 209.869 153.692 210.001C155.389 211.412 157.585 212.101 159.814 211.937C162.11 211.773 164.207 210.69 165.671 208.95L166.103 208.393C170.263 203.273 172.991 199.86 177.051 194.347C177.75 193.395 178.548 192.444 179.38 191.426C183.739 186.11 190.295 178.07 183.34 169.964C181.943 168.455 180.379 167.109 178.682 165.928C177.883 165.337 177.051 164.746 176.319 164.09C175.221 163.138 174.056 162.22 172.925 161.301L157.285 148.469C157.152 144.499 157.951 140.561 159.648 136.984C161.611 132.127 162.643 126.974 162.676 121.757H199.712C204.404 121.757 208.23 117.983 208.23 113.356C208.264 108.663 204.47 104.889 199.778 104.889ZM151.695 147.583C144.175 149.913 136.122 149.979 128.568 147.715C128.502 145.024 128.169 142.333 127.57 139.675C131.896 140.528 136.288 140.954 140.681 140.987C144.674 140.987 148.7 140.593 152.593 139.773C152.094 142.333 151.762 144.958 151.695 147.583ZM137.287 113.29H142.977V118.902C142.977 120.444 141.712 121.691 140.148 121.691C138.584 121.691 137.32 120.444 137.32 118.902V113.29H137.287ZM140.148 127.27C144.84 127.27 148.667 123.496 148.667 118.869V112.699C150.164 112.371 151.628 111.977 153.059 111.419L157.086 119.525C157.119 119.624 157.119 119.755 157.152 119.853C157.119 124.415 156.453 128.943 155.122 133.308C145.339 135.901 135.024 135.901 125.208 133.308C123.91 128.911 123.244 124.382 123.178 119.788C123.244 119.558 123.311 119.328 123.311 119.098L127.204 111.419C128.635 111.944 130.132 112.371 131.63 112.699V118.869C131.63 123.529 135.423 127.27 140.148 127.27ZM78.4887 115.226C77.9563 114.701 77.6568 114.012 77.6901 113.29C77.6901 111.748 78.9546 110.501 80.5185 110.501H121.348L118.519 116.112H80.5185C79.7532 116.079 79.0211 115.784 78.4887 115.226ZM131.63 222.504C130.066 222.504 128.801 221.257 128.801 219.714V172.885L134.492 174.296V219.714C134.458 221.224 133.194 222.504 131.63 222.504ZM175.321 170.358C176.685 171.277 177.916 172.327 179.048 173.508C182.708 177.775 179.946 181.778 174.988 187.849C174.09 188.932 173.224 190.015 172.492 191C168.499 196.415 165.804 199.795 161.711 204.816L161.312 205.308C160.846 205.866 160.147 206.227 159.415 206.259C158.583 206.325 157.751 206.03 157.152 205.472C156.054 204.356 156.054 202.617 157.152 201.501L158.25 200.156C169.331 186.537 171.527 183.255 171.893 181.713C172.426 178.956 170.995 176.232 168.399 175.051L168.067 174.821C166.303 173.705 164.573 172.59 162.842 171.474L168.3 164.714L169.331 165.567C170.429 166.453 171.494 167.306 172.559 168.225C173.457 168.98 174.389 169.669 175.321 170.358ZM163.974 161.137L158.117 168.389L152.993 164.976C152.76 164.812 152.494 164.681 152.194 164.615C150.098 163.992 147.935 163.696 145.772 163.696H142.977C139.616 163.696 136.555 165.665 135.19 168.684L128.768 167.109V153.654C132.262 154.573 135.856 155 139.483 155C144.341 154.967 149.133 154.212 153.758 152.801L163.974 161.137ZM199.778 116.079H161.644L158.883 110.468H199.778C200.544 110.468 201.276 110.763 201.808 111.321C202.34 111.846 202.64 112.535 202.607 113.257C202.607 114.832 201.342 116.079 199.778 116.079Z" fill="white"/>
<defs>
<filter id="filter0_d" x="0" y="0" width="280" height="280" filterUnits="userSpaceOnUse" color-interpolation-filters="sRGB">
<feFlood flood-opacity="0" result="BackgroundImageFix"/>
<feColorMatrix in="SourceAlpha" type="matrix" values="0 0 0 0 0 0 0 0 0 0 0 0 0 0 0 0 0 0 127 0" result="hardAlpha"/>
<feOffset dx="-1" dy="-1"/>
<feGaussianBlur stdDeviation="2.5"/>
<feComposite in2="hardAlpha" operator="out"/>
<feColorMatrix type="matrix" values="0 0 0 0 0 0 0 0 0 0 0 0 0 0 0 0 0 0 0.18 0"/>
<feBlend mode="normal" in2="BackgroundImageFix" result="effect1_dropShadow"/>
<feBlend mode="normal" in="SourceGraphic" in2="effect1_dropShadow" result="shape"/>
</filter>
<linearGradient id="paint0_linear" x1="87.5" y1="18" x2="186.5" y2="265" gradientUnits="userSpaceOnUse">
<stop stop-color="#FBBE20" stop-opacity="0.66"/>
<stop offset="1" stop-color="#FBBE20"/>
</linearGradient>
</defs>
</svg>
