<svg width="280" height="280" viewBox="0 0 280 280" fill="none" xmlns="http://www.w3.org/2000/svg">
<g filter="url(#filter0_d)">
<path d="M276 141C276 215.558 215.558 276 141 276C66.4416 276 6 215.558 6 141C6 66.4416 66.4416 6 141 6C215.558 6 276 66.4416 276 141Z" fill="url(#paint0_linear)" shape-rendering="crispEdges"/>
</g>
<path d="M206.736 192.076H164.275L152.3 172.968C153.301 170.347 153.809 167.569 153.798 164.771C154.006 159.559 152.085 154.483 148.462 150.672C148.462 150.601 148.504 150.541 148.504 150.468V108.234C152.703 112.411 158.412 114.784 164.386 114.839C166.519 114.868 168.642 114.543 170.664 113.877C171.762 113.448 172.437 112.356 172.318 111.201C172.2 110.047 171.318 109.109 170.156 108.903C167.992 108.031 166.297 106.313 165.479 104.161C163.733 101.219 163.24 97.7176 164.108 94.4201C166.684 89.3574 166.49 84.4755 163.555 81.0245C160.792 77.8747 156.413 76.5986 152.348 77.7592C150.965 78.1449 149.664 78.7687 148.504 79.602V63.5863C148.504 60.3341 146.739 57.3295 143.872 55.7034C141.007 54.0785 137.475 54.0785 134.609 55.7034C131.742 57.3295 129.977 60.3341 129.977 63.5863V85.5338C122.19 86.6528 116.496 93.3321 116.742 101.059C116.496 108.786 122.19 115.465 129.977 116.584V120.857C126.918 122.568 124.181 124.784 121.882 127.404C118.783 130.403 117.354 134.69 118.05 138.909C118.05 138.953 118.05 138.99 121.149 154.161L95.0382 148.128C92.3702 147.513 89.5628 148.084 87.3624 149.688C85.1657 151.289 83.8087 153.767 83.656 156.45L81.0098 200.683C80.776 205.743 84.7538 210.035 89.9033 210.279H90.274C95.1836 210.272 99.2414 206.513 99.5382 201.697L101.55 168.323L132.062 175.344L151.212 205.952C152.894 208.643 155.878 210.282 159.093 210.279H206.736C211.853 210.279 216 206.204 216 201.178C216 196.151 211.853 192.076 206.736 192.076ZM153.825 82.7518C155.87 82.1709 158.073 82.7947 159.489 84.3565C161.03 86.1766 160.988 88.9205 159.37 92.0953C157.319 96.1308 158.577 102.238 160.744 106.484C161.292 107.58 161.941 108.625 162.684 109.604C158.714 109.173 153.378 107.056 148.504 100.214V91.9262C148.504 91.8822 148.524 91.8453 148.504 91.8013C148.486 91.7572 148.504 91.6763 148.504 91.487V91.0061C148.542 89.0574 149.105 84.1017 153.825 82.7518ZM139.241 59.4508C141.497 59.521 143.272 61.3686 143.211 63.5863V90.512C143.195 90.9013 143.211 91.2656 143.211 91.6144V125.344C141.738 126.012 140.059 126.083 138.534 125.542C136.951 124.652 135.782 123.193 135.271 121.473V63.5863C135.209 61.3686 136.984 59.521 139.241 59.4508ZM122.036 101.059C121.831 96.2129 125.167 91.9108 129.977 90.818V111.3C125.167 110.207 121.831 105.905 122.036 101.059ZM125.819 130.883C127.497 128.974 129.44 127.304 131.591 125.924C132.681 127.801 134.322 129.311 136.299 130.257C137.591 130.837 138.994 131.133 140.413 131.126C141.357 131.114 142.296 130.995 143.211 130.772V143.561C135.948 146.352 127.528 144.281 124.336 143.302L123.254 137.976C122.88 135.343 123.838 132.695 125.819 130.883ZM90.274 205.078H90.0571C87.8725 204.943 86.2017 203.112 86.3035 200.964L86.6585 195.056L94.5426 196.601L94.2434 201.385C94.1186 203.452 92.3811 205.068 90.274 205.078ZM155.71 203.224L135.99 171.706C135.621 171.114 135.026 170.692 134.339 170.533L99.6933 162.549C98.9324 162.38 98.1339 162.543 97.5051 162.997C96.8787 163.456 96.4922 164.164 96.4461 164.929L94.8577 191.361L86.965 189.813L88.9497 156.746C89.0103 155.605 89.5846 154.55 90.5176 153.867C91.4638 153.173 92.6743 152.921 93.8253 153.181L123.947 160.15C124.075 160.18 124.207 160.202 124.339 160.213L132.409 160.863C133.869 160.979 135.148 159.911 135.268 158.477C135.387 157.044 134.3 155.787 132.84 155.669L126.753 155.18L125.498 149.01C128.593 149.763 131.767 150.155 134.956 150.176C137.749 150.187 140.529 149.801 143.211 149.032V150.468C143.226 150.693 143.271 150.916 143.346 151.129C143.016 152.17 143.388 153.302 144.274 153.958C147.21 156.791 148.753 160.735 148.504 164.771C148.542 167.299 148.014 169.805 146.959 172.112C146.933 172.198 146.91 172.285 146.893 172.371C146.831 172.54 146.789 172.714 146.766 172.892C146.741 173.054 146.734 173.218 146.745 173.381C146.755 173.543 146.78 173.702 146.819 173.859C146.863 174.031 146.926 174.198 147.004 174.356C147.031 174.439 147.061 174.521 147.096 174.601L160.543 196.055C161.028 196.818 161.882 197.281 162.798 197.277H196.148V205.078H159.093C157.714 205.079 156.433 204.377 155.71 203.224ZM206.736 205.078H201.442V197.277H206.736C208.929 197.277 210.706 199.023 210.706 201.178C210.706 203.331 208.929 205.078 206.736 205.078Z" fill="white"/>
<defs>
<filter id="filter0_d" x="0" y="0" width="280" height="280" filterUnits="userSpaceOnUse" color-interpolation-filters="sRGB">
<feFlood flood-opacity="0" result="BackgroundImageFix"/>
<feColorMatrix in="SourceAlpha" type="matrix" values="0 0 0 0 0 0 0 0 0 0 0 0 0 0 0 0 0 0 127 0" result="hardAlpha"/>
<feOffset dx="-1" dy="-1"/>
<feGaussianBlur stdDeviation="2.5"/>
<feComposite in2="hardAlpha" operator="out"/>
<feColorMatrix type="matrix" values="0 0 0 0 0 0 0 0 0 0 0 0 0 0 0 0 0 0 0.18 0"/>
<feBlend mode="normal" in2="BackgroundImageFix" result="effect1_dropShadow"/>
<feBlend mode="normal" in="SourceGraphic" in2="effect1_dropShadow" result="shape"/>
</filter>
<linearGradient id="paint0_linear" x1="87.5" y1="18" x2="186.5" y2="265" gradientUnits="userSpaceOnUse">
<stop stop-color="#FBBE20" stop-opacity="0.66"/>
<stop offset="1" stop-color="#FBBE20"/>
</linearGradient>
</defs>
</svg>
