<svg width="280" height="280" viewBox="0 0 280 280" fill="none" xmlns="http://www.w3.org/2000/svg">
<g filter="url(#filter0_d)">
<circle cx="141" cy="141" r="135" fill="url(#paint0_linear)" shape-rendering="crispEdges"/>
</g>
<path d="M203.215 87.748L197.042 71.8923C196.087 69.4369 194.117 67.4927 191.619 66.5431C189.122 65.5935 186.331 65.7271 183.94 66.9098C180.03 68.973 178.051 73.3799 179.137 77.6033C176.962 77.8584 174.934 78.8201 173.379 80.3356L134.527 118.43C131.324 121.576 128.72 125.26 126.84 129.306L125.712 131.744H109.447C115.749 126.148 118.13 117.45 115.532 109.509C115.066 108.439 113.943 107.794 112.765 107.916C111.587 108.037 110.625 108.898 110.396 110.038C109.471 112.123 107.725 113.751 105.555 114.548C101.62 116.496 96.7332 117.18 94.4485 116.098C88.8604 113.464 83.5223 113.74 79.8155 116.864C76.5963 119.587 75.3227 123.921 76.5715 127.907C77.0084 129.302 77.7077 130.602 78.6322 131.744H61.4632C56.2366 131.744 52 135.9 52 141.028C52 146.157 56.2366 150.313 61.4632 150.313H84.2822C85.4456 158.117 92.3902 163.823 100.424 163.578C108.458 163.823 115.402 158.117 116.566 150.313H121.008C122.787 153.38 125.091 156.123 127.815 158.425C130.404 160.924 133.852 162.381 137.481 162.51C138.252 162.51 139.021 162.434 139.777 162.286C139.823 162.286 139.866 162.27 155.486 159.208L150.219 178.374C149.557 180.801 149.485 183.345 150.01 185.802L155.447 211.004C155.415 211.219 155.41 211.437 155.435 211.653C155.493 211.969 155.611 212.27 155.78 212.545L156.862 217.497C158.109 222.383 163.079 225.422 168.099 224.369C173.12 223.316 176.387 218.55 175.49 213.59L170.128 183.494C169.877 182.085 169.919 180.642 170.253 179.25L177.665 148.239L209.488 129.047C212.004 127.513 214.792 124.203 213.791 117.14C213.302 113.684 208.073 100.171 203.215 87.748ZM186.362 71.6531C187.387 71.1406 188.585 71.0799 189.659 71.4843C190.732 71.8886 191.58 72.7217 191.992 73.7757L194.403 79.9701L186.832 82.808L185.67 79.8499L185.649 79.8025L184.551 76.978C183.702 75.0083 184.478 72.7265 186.362 71.6531ZM175.177 127.948C172.457 126.946 169.571 126.438 166.665 126.449C161.247 126.24 155.969 128.166 152.006 131.797C151.936 131.779 151.867 131.764 151.795 131.755H148.01C150.318 128.529 152.968 125.553 155.915 122.875L185.592 94.5495L194.079 116.374L175.177 127.948ZM131.758 131.515C133.371 128.046 135.604 124.887 138.349 122.189L177.21 84.0867C178.224 83.1007 179.668 82.6671 181.071 82.927L183.464 89.0825C183.311 89.2975 183.139 89.5003 182.951 89.6873L152.605 118.636L152.119 119.108C147.984 122.711 144.519 126.989 141.875 131.755H131.649L131.758 131.515ZM81.7388 126.373C81.1361 124.397 81.7623 122.258 83.3416 120.9C85.3726 119.188 88.4792 119.182 92.1105 120.9C96.5934 123.005 103.316 121.616 107.992 119.308C109.106 118.765 110.169 118.125 111.168 117.395C110.741 121.374 108.465 126.807 100.913 131.765H91.7714C91.7503 131.765 91.7342 131.765 91.712 131.765H90.4904C88.1549 131.662 83.12 130.919 81.7252 126.373H81.7388ZM57.1636 141.039C57.2366 138.778 59.1575 136.999 61.4632 137.06H90.5201C90.6612 137.06 90.8171 137.082 90.9533 137.082C91.155 137.082 91.3308 137.082 91.5201 137.06H125.671C126.366 138.534 126.44 140.217 125.879 141.745C124.955 143.332 123.437 144.505 121.649 145.019H61.4632C59.1575 145.079 57.2366 143.3 57.1636 141.039ZM100.424 158.282C95.3854 158.487 90.9124 155.144 89.7763 150.324H111.072C109.935 155.144 105.463 158.487 100.424 158.282ZM138.8 157.059C136.065 157.434 133.315 156.476 131.433 154.492C129.447 152.812 127.712 150.868 126.276 148.716C128.228 147.624 129.798 145.979 130.782 143.998C131.761 141.817 131.951 139.372 131.322 137.071H144.616C147.517 144.352 145.368 152.788 144.346 155.985L138.8 157.059ZM169.261 217.845C168.277 219.003 166.719 219.526 165.219 219.207C163.717 218.886 162.523 217.774 162.118 216.32L161.464 213.284L169.669 211.815L170.153 214.531C170.374 215.712 170.047 216.926 169.261 217.845ZM206.646 124.534L173.876 144.296C173.262 144.667 172.823 145.262 172.657 145.949L164.986 178.048C164.486 180.136 164.422 182.302 164.8 184.414L168.742 206.594L160.345 208.099L155.31 184.712C154.96 183.071 155.007 181.373 155.447 179.754L161.847 156.452C161.89 156.296 161.92 156.137 161.934 155.977L162.61 147.886C162.732 146.421 161.619 145.137 160.127 145.018C158.633 144.897 157.325 145.989 157.202 147.454L156.694 153.554L150.275 154.812C151.843 148.997 151.857 142.884 150.316 137.062H151.795C152.013 137.048 152.229 137.004 152.436 136.935C152.698 137.017 152.972 137.06 153.247 137.062C154.098 137.062 154.899 136.67 155.41 136.001C158.354 133.058 162.455 131.51 166.652 131.757C169.281 131.721 171.886 132.249 174.285 133.306C174.319 133.325 174.358 133.306 174.396 133.336C174.653 133.442 174.927 133.51 175.207 133.535C175.259 133.535 175.309 133.551 175.361 133.553H175.428C175.712 133.549 175.993 133.501 176.261 133.41C176.337 133.382 176.411 133.35 176.483 133.315C176.611 133.27 176.736 133.215 176.856 133.152L198.84 119.722C198.911 119.662 198.979 119.599 199.043 119.533C199.187 119.425 199.319 119.303 199.438 119.167C199.547 119.042 199.643 118.906 199.727 118.761C199.812 118.615 199.882 118.462 199.935 118.302C200.044 117.986 200.09 117.654 200.07 117.321C200.06 117.141 200.029 116.963 199.979 116.79C199.969 116.702 199.955 116.613 199.935 116.525L188.936 88.2543C188.92 88.2167 188.909 88.1803 188.893 88.1426L188.747 87.771L196.331 84.9331L198.167 89.6496C201.106 97.1543 207.989 114.729 208.441 117.87C208.917 121.274 208.303 123.515 206.646 124.534Z" fill="white"/>
<defs>
<filter id="filter0_d" x="0" y="0" width="280" height="280" filterUnits="userSpaceOnUse" color-interpolation-filters="sRGB">
<feFlood flood-opacity="0" result="BackgroundImageFix"/>
<feColorMatrix in="SourceAlpha" type="matrix" values="0 0 0 0 0 0 0 0 0 0 0 0 0 0 0 0 0 0 127 0" result="hardAlpha"/>
<feOffset dx="-1" dy="-1"/>
<feGaussianBlur stdDeviation="2.5"/>
<feComposite in2="hardAlpha" operator="out"/>
<feColorMatrix type="matrix" values="0 0 0 0 0 0 0 0 0 0 0 0 0 0 0 0 0 0 0.18 0"/>
<feBlend mode="normal" in2="BackgroundImageFix" result="effect1_dropShadow"/>
<feBlend mode="normal" in="SourceGraphic" in2="effect1_dropShadow" result="shape"/>
</filter>
<linearGradient id="paint0_linear" x1="87.5" y1="18" x2="186.5" y2="265" gradientUnits="userSpaceOnUse">
<stop stop-color="#FBBE20" stop-opacity="0.66"/>
<stop offset="1" stop-color="#FBBE20"/>
</linearGradient>
</defs>
</svg>
